# xmcd CD database file
#
# Track frame offsets:
#	150
#	19878
#	39691
#	56691
#	77582
#	95313
#	112819
#	131726
#	150068
#	169415
#	187704
#	204345
#	224857
#
# Disc length: 3238 seconds
#
# Revision: 2
# Processed by: cddbd v1.5.1PL0 Copyright (c) Steve Scherf et al.
# Submitted via: CDex 1.51
#
DISCID=a60ca40d
DTITLE=AMAZE ME - Wonderland
DYEAR=1998
DGENRE=Hard Rock
TTITLE0=Wonderland
TTITLE1=Without Your Love
TTITLE2=Thousand Miles Away
TTITLE3=Shadows From The Past
TTITLE4=Higher and Higher
TTITLE5=Stuck With The Blues
TTITLE6=Heart Made Of Stone
TTITLE7=Red Lips
TTITLE8=Good Day To Die
TTITLE9=You Say You Never Cry
TTITLE10=Help Me Through The Night
TTITLE11=Every Heartbeat
TTITLE12=Next Train Back
EXTD=YEAR: 1998
EXTT0=
EXTT1=
EXTT2=
EXTT3=
EXTT4=
EXTT5=
EXTT6=
EXTT7=
EXTT8=
EXTT9=
EXTT10=
EXTT11=
EXTT12=
PLAYORDER=
